# xmcd CD database file
#
# Track frame offsets:
#	150
#	18065
#	31512
#	46030
#	65237
#	84610
#	99315
#	114685
#	133965
#	148965
#	169245
#	181875
#	196837
#	216757
#	236700
#	250307
#	262267
#	275522
#	289985
#	304020
#
# Disc length: 4348 seconds
#
# Revision: 0
# Processed by: cddbd v1.5.1PL0 Copyright (c) Steve Scherf et al.
# Submitted via: CDex 1.50beta10
#
DISCID=2d10fa14
DTITLE=Various Artist - Jazz Night And Day CD1
DYEAR=1997
DGENRE=Jazz
TTITLE0=Sonny Criss - I Got It Bad (And It Ain't That Good)
TTITLE1=Louis Armstrong - I Wonder
TTITLE2=Carmen McRae - Something To Live For
TTITLE3=Count Basie - I Want A Little Girl
TTITLE4=Johnny Hartman - The Foolish Things
TTITLE5=John Coltrane - Nancy - With The Laughing Face
TTITLE6=Peggy Lee - Gee Baby Ain't I Good To You
TTITLE7=Duke Ellington and John Coltrane - In A Sentimental Mood
TTITLE8=JJ Johnson and Kai Winding - Just For A Thrill
TTITLE9=Ben Webster - Someone To Watch Over Me
TTITLE10=Shirley Horn - Travlin' Light
TTITLE11=Ella Fitzgerald - I Didn't Mean A Word I Said
TTITLE12=Johnny Hodges - Mood Indigo
TTITLE13=Al Cohn Quintet Feat. Zoot Sims - Two Funky People
TTITLE14=Betty Carter - Don't Weep For The Lady
TTITLE15=Milt Jackson - I Got It Bad And That Ain't Good
TTITLE16=Carmen McRae - Summertime
TTITLE17=Coleman Hawkins - And I Still Love You
TTITLE18=Billie Holiday - Good Morning Heartache
TTITLE19=John Coltrane and Johhny Hartman - My One And Only Love
EXTD=YEAR: 1997
EXTT0=
EXTT1=
EXTT2=
EXTT3=
EXTT4=
EXTT5=
EXTT6=
EXTT7=
EXTT8=
EXTT9=
EXTT10=
EXTT11=
EXTT12=
EXTT13=
EXTT14=
EXTT15=
EXTT16=
EXTT17=
EXTT18=
EXTT19=
PLAYORDER=
